#!OML:ASF F:\VICON\USERDATA\INSTALL\rory3\rory3.ASF
:FULLY-SPECIFIED
:DEGREES
206
root 0.459026 17.9277 13.3261 -0.0646125 -1.80794 -6.71119
lowerback 10.0637 1.42653 7.4705
upperback -0.286907 2.90369 2.01744
thorax -5.69878 1.23797 -2.5
lowerneck -17.4091 -3.07841 -1.51351
upperneck 20.6977 -3.75629 -0.42597
head 9.42714 -1.91643 -0.388734
rclavicle -6.26172e-015 -7.7526e-015
rhumerus -19.3265 -7.25697 -83.3
rradius 33.8353
rwrist -4.27703
rhand -18.3189 24.2835
rfingers 7.12502
rthumb 7.96257 -5.54654
lclavicle -6.26172e-015 -7.7526e-015
lhumerus -36.6319 4.8874 81.5409
lradius 22.2183
lwrist 3.9349
lhand -26.12 19.2629
lfingers 7.12502
lthumb 0.429853 49.2422
rfemur 3.01011 6.45281 35.0902
rtibia 23.2925
rfoot -19.3507 -10.4749
rtoes 2.55158
lfemur -28.6985 -1.62671 -11.7681
ltibia 27.8099
lfoot -6.89457 4.95366
ltoes -9.8427
207
root 0.479166 17.921 13.4987 0.136001 -1.96881 -6.80161
lowerback 9.85452 1.48527 7.62985
upperback -0.209426 2.97594 2.04672
thorax -5.48551 1.27918 -2.55795
lowerneck -17.3942 -2.9757 -1.50309
upperneck 20.4479 -3.62566 -0.379637
head 9.33723 -1.84989 -0.354158
rclavicle -2.09097e-014 1.98785e-016
rhumerus -18.894 -6.92701 -83.3005
rradius 34.226
rwrist -4.46268
rhand -18.5394 24.0642
rfingers 7.12502
rthumb 7.74978 -5.77376
lclavicle -2.09097e-014 1.98785e-016
lhumerus -36.7632 4.95791 81.5985
lradius 22.4613
lwrist 3.873
lhand -26.2223 19.486
lfingers 7.12502
lthumb 0.331038 49.4655
rfemur 3.72989 6.40088 35.0444
rtibia 22.7444
rfoot -19.5133 -10.0578
rtoes 2.85287
lfemur -28.5252 -2.54018 -11.2785
ltibia 24.8405
lfoot -6.92096 5.20687
ltoes -10.0034
208
root 0.499431 17.9144 13.6734 0.326593 -2.11366 -6.60542
lowerback 9.75792 1.52737 7.49359
upperback -0.259331 3.00695 1.99558
thorax -5.48443 1.29658 -2.53717
lowerneck -17.0905 -2.98051 -1.46958
upperneck 20.1591 -3.61076 -0.528296
head 9.17746 -1.85853 -0.400185
rclavicle 1.76421e-015 -3.18055e-015
rhumerus -18.8424 -6.41765 -83.3344
rradius 34.6589
rwrist -4.60975
rhand -18.9136 24.0521
rfingers 7.12502
rthumb 7.38854 -5.7989
lclavicle 1.76421e-015 -3.18055e-015
lhumerus -36.8407 5.58359 81.4067
lradius 22.2997
lwrist 3.84318
lhand -26.4346 19.2086
lfingers 7.12502
lthumb 0.125997 49.1883
rfemur 4.41258 6.44667 34.6974
rtibia 22.214
rfoot -19.5443 -9.54003
rtoes 3.74865
lfemur -28.3098 -3.54508 -11.0526
ltibia 21.8445
lfoot -6.99006 5.47425
ltoes -10.2291
209
root 0.514826 17.8922 13.8468 0.480179 -2.2779 -6.77858
lowerback 9.80216 1.59862 7.68735
upperback -0.34429 3.13493 2.01627
thorax -5.57909 1.34852 -2.64346
lowerneck -16.999 -3.01035 -1.51619
upperneck 20.1832 -3.64917 -0.494453
head 9.17098 -1.87646 -0.384614
rclavicle 8.48562e-015 -5.66536e-014
rhumerus -18.8499 -6.34773 -83.345
rradius 34.8111
rwrist -4.32935
rhand -19.4641 24.8393
rfingers 7.12502
rthumb 6.85717 -5.02965
lclavicle 8.48562e-015 -5.66536e-014
lhumerus -36.936 6.01679 81.1968
lradius 22.1324
lwrist 3.71033
lhand -26.3751 18.1793
lfingers 7.12502
lthumb 0.183486 48.159
rfemur 5.11993 6.37815 34.7885
rtibia 21.7637
rfoot -19.4723 -9.2506
rtoes 3.17221
lfemur -28.0342 -4.57414 -10.309
ltibia 18.8948
lfoot -6.8665 5.72143
ltoes -9.35778
210
root 0.527919 17.8681 14.0201 0.627263 -2.44867 -7.08121
lowerback 9.77505 1.69979 8.03791
upperback -0.395967 3.31117 2.03208
thorax -5.58406 1.42355 -2.8444
lowerneck -16.958 -3.05366 -1.66975
upperneck 20.2393 -3.72401 -0.256506
head 9.19163 -1.89651 -0.287603
rclavicle -3.11346e-014 -3.61788e-014
rhumerus -18.8118 -6.39609 -83.3258
rradius 34.8772
rwrist -4.3521
rhand -19.6255 25.4683
rfingers 7.12502
rthumb 6.70137 -4.40566
lclavicle -3.11346e-014 -3.61788e-014
lhumerus -37.1245 6.03881 81.1181
lradius 22.3081
lwrist 3.72876
lhand -26.4224 19.3594
lfingers 7.12502
lthumb 0.13782 49.3391
rfemur 5.74536 6.38291 35.0609
rtibia 21.4699
rfoot -19.3848 -9.09761
rtoes 2.71334
lfemur -27.7423 -5.66233 -9.36542
ltibia 16.0696
lfoot -6.59688 6.18898
ltoes -7.98597
211
root 0.54322 17.8499 14.1965 0.649874 -2.55996 -7.09644
lowerback 9.97955 1.81123 8.09152
upperback -0.509537 3.49197 1.98463
thorax -5.79579 1.49822 -2.9599
lowerneck -16.9434 -3.06673 -1.59774
upperneck 20.4131 -3.76303 -0.256918
head 9.24791 -1.90881 -0.306268
rclavicle 1.69588e-014 -1.78906e-015
rhumerus -18.8595 -6.6354 -83.2476
rradius 34.8483
rwrist -4.31265
rhand -19.8618 25.3337
rfingers 7.12502
rthumb 6.47327 -4.54733
lclavicle 1.69588e-014 -1.78906e-015
lhumerus -37.4389 6.06285 81.0344
lradius 22.4001
lwrist 3.45829
lhand -26.4067 20.1305
lfingers 7.12502
lthumb 0.152969 50.1102
rfemur 6.40462 6.33855 35.0136
rtibia 21.2598
rfoot -19.6165 -9.04464
rtoes 2.1837
lfemur -27.3844 -6.80336 -8.79547
ltibia 13.6287
lfoot -6.43201 7.00959
ltoes -7.49048
212
root 0.556657 17.8351 14.3807 0.597829 -2.74455 -6.94006
lowerback 10.0239 1.92419 7.87586
upperback -0.510728 3.61854 1.94118
thorax -5.81776 1.56537 -2.90523
lowerneck -16.9058 -3.02326 -1.47253
upperneck 20.5508 -3.72146 -0.328299
head 9.28433 -1.88743 -0.346824
rclavicle 1.16041e-014 -1.78906e-015
rhumerus -18.9697 -6.53912 -83.1908
rradius 35.226
rwrist -4.56783
rhand -19.8181 24.2489
rfingers 7.12502
rthumb 6.51546 -5.63087
lclavicle 1.16041e-014 -1.78906e-015
lhumerus -37.6138 6.33644 80.8569
lradius 21.9078
lwrist 2.82692
lhand -27.0731 16.3725
lfingers 7.12502
lthumb -0.490659 46.3516
rfemur 7.13189 6.27633 34.7807
rtibia 21.1801
rfoot -19.0333 -8.78787
rtoes 1.61984
lfemur -26.7986 -7.27259 -8.70046
ltibia 11.4543
lfoot -6.33954 7.50858
ltoes -9.40804
213
root 0.570727 17.8142 14.5649 0.593761 -2.95004 -6.95891
lowerback 9.94951 1.98973 7.76255
upperback -0.425177 3.68035 1.96765
thorax -5.68638 1.607 -2.81705
lowerneck -16.8772 -2.90146 -1.24418
upperneck 20.4546 -3.59141 -0.424312
head 9.23807 -1.82 -0.398904
rclavicle -4.42047e-014 -5.73494e-014
rhumerus -18.7167 -6.42438 -83.1968
rradius 35.3714
rwrist -4.87097
rhand -19.5423 23.5683
rfingers 7.12502
rthumb 6.7817 -6.30311
lclavicle -4.42047e-014 -5.73494e-014
lhumerus -37.7017 7.00773 80.4957
lradius 21.5852
lwrist 2.21588
lhand -26.9673 10.9461
lfingers 7.12502
lthumb -0.388522 40.9255
rfemur 7.77762 6.26838 34.7196
rtibia 21.2067
rfoot -18.9846 -8.48819
rtoes 0.596932
lfemur -26.2205 -6.48346 -8.98941
ltibia 9.79651
lfoot -6.77245 7.0019
ltoes -10.468
214
root 0.589352 17.7908 14.7581 0.7249 -2.91732 -6.79811
lowerback 9.68197 2.01401 7.58666
upperback -0.387411 3.66089 1.93048
thorax -5.50447 1.61069 -2.74173
lowerneck -16.9956 -2.85972 -1.21598
upperneck 20.4159 -3.54876 -0.382394
head 9.24644 -1.79286 -0.385221
rclavicle -3.09731e-014 1.98785e-016
rhumerus -18.4185 -6.36185 -83.1513
rradius 35.1196
rwrist -4.84581
rhand -19.4471 24.1535
rfingers 7.12502
rthumb 6.87359 -5.71496
lclavicle -3.09731e-014 1.98785e-016
lhumerus -37.648 7.33184 80.4815
lradius 21.7329
lwrist 2.9486
lhand -25.968 19.3316
lfingers 7.12502
lthumb 0.57664 49.3106
rfemur 8.29094 6.1579 34.4214
rtibia 21.3516
rfoot -19.2923 -8.10824
rtoes -0.756665
lfemur -26.0327 -5.91528 -9.45811
ltibia 8.83625
lfoot -7.49296 6.4975
ltoes -9.19733
215
root 0.609476 17.764 14.955 0.770918 -2.74953 -6.75804
lowerback 9.35561 2.01917 7.63911
upperback -0.302149 3.63192 1.8631
thorax -5.22485 1.60757 -2.81911
lowerneck -17.1076 -2.87982 -1.09631
upperneck 20.4971 -3.61127 -0.369715
head 9.29306 -1.81052 -0.411387
rclavicle -1.9133e-014 -3.46879e-014
rhumerus -18.1656 -6.61749 -83.1419
rradius 34.7411
rwrist -4.41467
rhand -19.6201 24.7776
rfingers 7.12502
rthumb 6.70656 -5.09615
lclavicle -1.9133e-014 -3.46879e-014
lhumerus -37.6407 7.36841 80.5457
lradius 22.0249
lwrist 3.73729
lhand -26.814 19.7677
lfingers 7.12502
lthumb -0.240432 49.7473
rfemur 8.90126 5.9968 34.2871
rtibia 21.5946
rfoot -19.5641 -7.85949
rtoes -2.40871
lfemur -26.0683 -5.49889 -9.81744
ltibia 8.78227
lfoot -7.76143 5.73729
ltoes -8.22315
216
root 0.628797 17.7424 15.1476 0.615636 -2.52706 -6.52608
lowerback 9.32332 1.99404 7.46174
upperback -0.212759 3.56546 1.77369
thorax -5.12278 1.58468 -2.80229
lowerneck -17.2792 -2.91308 -1.05775
upperneck 20.7235 -3.67381 -0.343373
head 9.40344 -1.83214 -0.422312
rclavicle -3.78436e-014 -6.65929e-015
rhumerus -18.1018 -7.00079 -83.1021
rradius 34.7006
rwrist -4.21756
rhand -19.2447 24.6048
rfingers 7.12502
rthumb 7.06896 -5.25719
lclavicle -3.78436e-014 -6.65929e-015
lhumerus -37.6679 7.41747 80.432
lradius 21.7185
lwrist 2.96074
lhand -27.0458 13.1418
lfingers 7.12502
lthumb -0.464277 43.121
rfemur 9.53667 5.88667 34.003
rtibia 22.0599
rfoot -19.753 -7.63849
rtoes -2.76738
lfemur -26.0931 -5.19199 -10.4246
ltibia 9.43321
lfoot -7.48835 4.90524
ltoes -7.24822
217
root 0.649815 17.7196 15.3374 0.554987 -2.38371 -6.51858
lowerback 9.4971 1.96853 7.48182
upperback -0.275012 3.55317 1.74775
thorax -5.28523 1.56983 -2.84926
lowerneck -17.3345 -2.9408 -1.00067
upperneck 20.8291 -3.72019 -0.377971
head 9.44869 -1.85253 -0.451883
rclavicle 1.30949e-014 2.40529e-014
rhumerus -18.2165 -7.21518 -83.0253
rradius 34.6089
rwrist -4.07394
rhand -19.1451 24.4223
rfingers 7.12502
rthumb 7.16507 -5.43646
lclavicle 1.30949e-014 2.40529e-014
lhumerus -37.6168 8.08027 79.9813
lradius 21.1669
lwrist 2.09528
lhand -26.6443 19.6866
lfingers 7.12502
lthumb -0.0765878 49.6663
rfemur 9.92215 5.93317 33.9981
rtibia 22.7184
rfoot -19.6888 -7.46249
rtoes -3.61035
lfemur -26.5108 -4.79275 -10.8088
ltibia 10.907
lfoot -7.11015 4.2709
ltoes -7.77129
218
root 0.656612 17.6914 15.5221 0.40429 -2.50599 -6.49526
lowerback 9.79864 2.04214 7.23835
upperback -0.291464 3.65635 1.80184
thorax -5.4804 1.61983 -2.68625
lowerneck -17.2017 -3.01543 -1.1915
upperneck 20.7951 -3.79857 -0.268803
head 9.41919 -1.89226 -0.390494
rclavicle -1.9543e-014 -2.88238e-015
rhumerus -18.3144 -7.48053 -82.9142
rradius 34.4661
rwrist -3.76475
rhand -19.1521 24.4977
rfingers 7.12502
rthumb 7.15836 -5.36121
lclavicle -1.9543e-014 -2.88238e-015
lhumerus -37.6442 8.58946 79.7927
lradius 20.9223
lwrist 2.02393
lhand -26.6384 25.1699
lfingers 7.12502
lthumb -0.0708489 55.1496
rfemur 10.2712 6.41008 34.1385
rtibia 23.655
rfoot -19.6649 -7.40874
rtoes -4.17093
lfemur -26.7417 -4.00311 -11.2182
ltibia 12.3951
lfoot -6.79768 3.5321
ltoes -10.1783
219
root 0.661922 17.6491 15.7099 0.0618094 -2.70282 -6.99986
lowerback 10.2069 2.12423 7.50729
upperback -0.223731 3.84287 1.99671
thorax -5.6185 1.70181 -2.67476
lowerneck -17.0122 -3.04785 -1.29502
upperneck 20.6772 -3.85529 -0.107007
head 9.34932 -1.90954 -0.320616
rclavicle 1.79279e-014 2.0773e-014
rhumerus -18.5115 -8.21004 -82.7339
rradius 34.2831
rwrist -3.10571
rhand -18.558 24.6182
rfingers 7.12502
rthumb 7.7318 -5.22044
lclavicle 1.79279e-014 2.0773e-014
lhumerus -37.8392 8.2964 80.0051
lradius 21.2669
lwrist 2.41729
lhand -25.6417 23.629
lfingers 7.12502
lthumb 0.89178 53.6068
rfemur 10.7745 6.77781 34.8803
rtibia 24.7369
rfoot -19.4384 -7.5289
rtoes -5.38677
lfemur -26.7362 -3.54271 -10.8583
ltibia 13.8846
lfoot -6.94082 2.87435
ltoes -11.8365
